<svg width="86" height="84" viewBox="0 0 86 84" fill="none" xmlns="http://www.w3.org/2000/svg">
<ellipse cx="42.8235" cy="42" rx="42.8235" ry="42" fill="url(#paint0_linear_1_41)"/>
<path d="M50.853 36.1022C50.1214 36.1022 49.5148 35.5072 49.5148 34.7897V32.3747C49.5148 30.5372 48.7118 28.7522 47.3201 27.5097C45.9104 26.2497 44.0904 25.6722 42.1634 25.8472C38.9516 26.1447 36.1324 29.3647 36.1324 32.7247V34.4222C36.1324 35.1397 35.5257 35.7347 34.7942 35.7347C34.0626 35.7347 33.4559 35.1397 33.4559 34.4222V32.7072C33.4559 27.9997 37.3279 23.6597 41.9136 23.2222C44.5901 22.9772 47.1595 23.7997 49.1222 25.5672C51.0671 27.2997 52.1912 29.7847 52.1912 32.3747V34.7897C52.1912 35.5072 51.5846 36.1022 50.853 36.1022Z" fill="#DA001A"/>
<path d="M48.1761 60.8125H37.4703C29.2268 60.8125 27.6922 57.05 27.2997 53.3925L25.9615 42.91C25.7652 41.02 25.6938 38.3075 27.5673 36.2775C29.1732 34.5275 31.8319 33.6875 35.686 33.6875H49.9604C53.8324 33.6875 56.491 34.545 58.0791 36.2775C59.9348 38.3075 59.8812 41.02 59.685 42.875L58.3467 53.3925C57.9542 57.05 56.4197 60.8125 48.1761 60.8125ZM35.686 36.3125C32.6705 36.3125 30.6007 36.89 29.5479 38.045C28.6736 38.99 28.3881 40.4425 28.6201 42.6125L29.9583 53.095C30.2617 55.895 31.0468 58.205 37.4703 58.205H48.1761C54.5997 58.205 55.3848 55.9125 55.6881 53.13L57.0263 42.6125C57.2583 40.4775 56.9728 39.025 56.0985 38.0625C55.0457 36.89 52.9759 36.3125 49.9604 36.3125H35.686Z" fill="#DA001A"/>
<path d="M48.9263 44.0123C47.9271 44.0123 47.1241 43.2248 47.1241 42.2623C47.1241 41.2998 47.9271 40.5123 48.9085 40.5123C49.8898 40.5123 50.6928 41.2998 50.6928 42.2623C50.6928 43.2248 49.9077 44.0123 48.9263 44.0123Z" fill="#DA001A"/>
<path d="M36.436 44.0123C35.4368 44.0123 34.6339 43.2248 34.6339 42.2623C34.6339 41.2998 35.4368 40.5123 36.4182 40.5123C37.3995 40.5123 38.2025 41.2998 38.2025 42.2623C38.2025 43.2248 37.4174 44.0123 36.436 44.0123Z" fill="#DA001A"/>
<defs>
<linearGradient id="paint0_linear_1_41" x1="76.0118" y1="2.14197e-06" x2="43.9282" y2="84.4198" gradientUnits="userSpaceOnUse">
<stop stop-color="#FFA3CF"/>
<stop offset="1" stop-color="#FFD5F3"/>
</linearGradient>
</defs>
</svg>
