<svg width="91" height="84" viewBox="0 0 91 84" fill="none" xmlns="http://www.w3.org/2000/svg">
<ellipse cx="45.3988" cy="42" rx="45.3988" ry="42" fill="url(#paint0_linear_1_9)"/>
<path d="M47.385 50.8379H43.8288C41.3129 50.8379 39.2511 48.8779 39.2511 46.4629C39.2511 45.7454 39.8942 45.1504 40.6698 45.1504C41.4453 45.1504 42.0885 45.7454 42.0885 46.4629C42.0885 47.4254 42.864 48.2129 43.8288 48.2129H47.385C48.1227 48.2129 48.7091 47.6004 48.7091 46.8479C48.7091 45.9029 48.4254 45.7629 47.7823 45.5529L42.0885 43.7154C40.8779 43.3304 39.2511 42.5079 39.2511 39.9354C39.2511 37.7479 41.1238 35.9454 43.4126 35.9454H46.9689C49.4847 35.9454 51.5466 37.9054 51.5466 40.3204C51.5466 41.0379 50.9034 41.6329 50.1279 41.6329C49.3523 41.6329 48.7091 41.0379 48.7091 40.3204C48.7091 39.3579 47.9336 38.5704 46.9689 38.5704H43.4126C42.6749 38.5704 42.0885 39.1829 42.0885 39.9354C42.0885 40.8804 42.3722 41.0204 43.0154 41.2304L48.7091 43.0679C49.9198 43.4529 51.5466 44.2754 51.5466 46.8479C51.5466 49.0529 49.6739 50.8379 47.385 50.8379Z" fill="#00AC4F"/>
<path d="M45.3988 52.5875C44.6233 52.5875 43.9801 51.9925 43.9801 51.275V35.525C43.9801 34.8075 44.6233 34.2125 45.3988 34.2125C46.1744 34.2125 46.8175 34.8075 46.8175 35.525V51.275C46.8175 51.9925 46.1744 52.5875 45.3988 52.5875Z" fill="#00AC4F"/>
<path d="M45.3988 62.2125C34.1815 62.2125 25.0639 53.7775 25.0639 43.4C25.0639 33.0225 34.1815 24.5875 45.3988 24.5875C46.1744 24.5875 46.8175 25.1825 46.8175 25.9C46.8175 26.6175 46.1744 27.2125 45.3988 27.2125C35.7516 27.2125 27.9014 34.475 27.9014 43.4C27.9014 52.325 35.7516 59.5875 45.3988 59.5875C55.0461 59.5875 62.8963 52.325 62.8963 43.4C62.8963 42.6825 63.5394 42.0875 64.315 42.0875C65.0906 42.0875 65.7337 42.6825 65.7337 43.4C65.7337 53.7775 56.6161 62.2125 45.3988 62.2125Z" fill="#00AC4F"/>
<path d="M62.4234 35.9625H54.8569C54.0813 35.9625 53.4382 35.3675 53.4382 34.65V27.65C53.4382 26.9325 54.0813 26.3375 54.8569 26.3375C55.6325 26.3375 56.2756 26.9325 56.2756 27.65V33.3375H62.4234C63.1989 33.3375 63.8421 33.9325 63.8421 34.65C63.8421 35.3675 63.1989 35.9625 62.4234 35.9625Z" fill="#00AC4F"/>
<path d="M54.8559 35.9633C54.4965 35.9633 54.1371 35.8408 53.8533 35.5783C53.3047 35.0708 53.3047 34.2308 53.8533 33.7233L63.3114 24.9733C63.86 24.4658 64.7679 24.4658 65.3165 24.9733C65.8651 25.4808 65.8651 26.3208 65.3165 26.8283L55.8584 35.5783C55.5747 35.8408 55.2153 35.9633 54.8559 35.9633Z" fill="#00AC4F"/>
<defs>
<linearGradient id="paint0_linear_1_9" x1="80.5829" y1="2.14197e-06" x2="49.8923" y2="85.6109" gradientUnits="userSpaceOnUse">
<stop stop-color="#D3FFE7"/>
<stop offset="1" stop-color="#EFFFF6"/>
</linearGradient>
</defs>
</svg>
