<svg width="85" height="84" viewBox="0 0 85 84" fill="none" xmlns="http://www.w3.org/2000/svg">
<ellipse cx="42.1195" cy="42" rx="42.1195" ry="42" fill="url(#paint0_linear_1_25)"/>
<path d="M33.6426 61.8118C29.4657 61.8118 26.0436 58.7843 26.0436 55.0568V51.4868C26.0436 50.7693 26.6403 50.1743 27.3598 50.1743C28.0794 50.1743 28.676 50.7693 28.676 51.4868C28.676 53.6743 30.7995 55.3193 33.6426 55.3193C36.4856 55.3193 38.6092 53.6743 38.6092 51.4868C38.6092 50.7693 39.2059 50.1743 39.9254 50.1743C40.6449 50.1743 41.2416 50.7693 41.2416 51.4868V55.0568C41.2416 58.7843 37.837 61.8118 33.6426 61.8118ZM29.1323 56.7718C29.9044 58.2068 31.6419 59.1868 33.6426 59.1868C35.6432 59.1868 37.3807 58.1893 38.1529 56.7718C36.9068 57.5243 35.3624 57.9618 33.6426 57.9618C31.9227 57.9618 30.3783 57.5243 29.1323 56.7718Z" fill="#0F5FC2"/>
<path d="M33.6426 53.1489C30.7644 53.1489 28.1846 51.8364 26.9035 49.7539C26.3419 48.8439 26.0436 47.7764 26.0436 46.6914C26.0436 44.8539 26.8509 43.1389 28.325 41.8614C31.1681 39.3765 36.0645 39.3766 38.9251 41.8441C40.3992 43.1391 41.2241 44.8539 41.2241 46.6914C41.2241 47.7764 40.9257 48.8439 40.3641 49.7539C39.1006 51.8364 36.5207 53.1489 33.6426 53.1489ZM33.6426 42.5616C32.2737 42.5616 31.0101 43.0164 30.0624 43.8389C29.1674 44.6089 28.676 45.6239 28.676 46.6914C28.676 47.3039 28.8339 47.8641 29.1498 48.3891C29.9571 49.7191 31.677 50.5416 33.6426 50.5416C35.6081 50.5416 37.328 49.7191 38.1178 48.4066C38.4336 47.8991 38.5916 47.3216 38.5916 46.7091C38.5916 45.6416 38.1003 44.6264 37.2052 43.8389C36.2751 43.0164 35.0115 42.5616 33.6426 42.5616Z" fill="#0F5FC2"/>
<path d="M33.6426 57.9625C29.3078 57.9625 26.0436 55.18 26.0436 51.505V46.6925C26.0436 42.965 29.4482 39.9375 33.6426 39.9375C35.6257 39.9375 37.5211 40.62 38.9426 41.845C40.4168 43.14 41.2416 44.855 41.2416 46.6925V51.505C41.2416 55.18 37.9774 57.9625 33.6426 57.9625ZM33.6426 42.5625C30.9048 42.5625 28.676 44.4175 28.676 46.6925V51.505C28.676 53.6925 30.7995 55.3375 33.6426 55.3375C36.4856 55.3375 38.6092 53.6925 38.6092 51.505V46.6925C38.6092 45.625 38.1178 44.61 37.2228 43.8225C36.2751 43.0175 35.0115 42.5625 33.6426 42.5625Z" fill="#0F5FC2"/>
<path d="M54.4743 47.9004C51.8243 47.9004 49.5779 45.9403 49.3673 43.4203C49.2269 41.9678 49.7534 40.5503 50.8064 39.5178C51.6839 38.6078 52.9299 38.1003 54.2462 38.1003H57.9141C59.6515 38.1528 60.9853 39.5178 60.9853 41.1978V44.8028C60.9853 46.4828 59.6515 47.8479 57.9667 47.9004H54.4743ZM57.8614 40.7253H54.2637C53.6495 40.7253 53.0879 40.9528 52.6842 41.3728C52.1753 41.8628 51.9296 42.5278 51.9998 43.1928C52.0875 44.3478 53.2107 45.2754 54.4743 45.2754H57.9141C58.1422 45.2754 58.3528 45.0653 58.3528 44.8028V41.1978C58.3528 40.9353 58.1422 40.7428 57.8614 40.7253Z" fill="#0F5FC2"/>
<path d="M49.1397 59.1875H44.7523C44.0327 59.1875 43.436 58.5925 43.436 57.875C43.436 57.1575 44.0327 56.5625 44.7523 56.5625H49.1397C53.6676 56.5625 56.5984 53.64 56.5984 49.125V47.9H54.4748C51.8248 47.9 49.5785 45.94 49.3679 43.42C49.2275 41.9675 49.7541 40.55 50.8071 39.5175C51.6846 38.6075 52.9305 38.1 54.2467 38.1H56.5808V36.875C56.5808 32.78 54.1767 29.9625 50.2806 29.5075C49.8594 29.4375 49.4907 29.4375 49.1222 29.4375H33.3274C32.9062 29.4375 32.5025 29.4725 32.0989 29.525C28.2379 30.015 25.8687 32.815 25.8687 36.875V40.375C25.8687 41.0925 25.272 41.6875 24.5525 41.6875C23.833 41.6875 23.2363 41.0925 23.2363 40.375V36.875C23.2363 31.485 26.5708 27.5825 31.748 26.935C32.2218 26.865 32.7658 26.8125 33.3274 26.8125H49.1222C49.5434 26.8125 50.0874 26.83 50.649 26.9175C55.8262 27.5125 59.2133 31.4325 59.2133 36.875V39.4125C59.2133 40.13 58.6166 40.725 57.8971 40.725H54.2467C53.6325 40.725 53.071 40.9525 52.6674 41.3725C52.1584 41.8625 51.9126 42.5275 51.9828 43.1925C52.0705 44.3475 53.1939 45.275 54.4575 45.275H57.9146C58.6341 45.275 59.2308 45.87 59.2308 46.5875V49.125C59.2308 55.145 55.1768 59.1875 49.1397 59.1875Z" fill="#0F5FC2"/>
<defs>
<linearGradient id="paint0_linear_1_25" x1="74.7621" y1="2.14197e-06" x2="42.2804" y2="84.0622" gradientUnits="userSpaceOnUse">
<stop stop-color="#CAF1FF"/>
<stop offset="1" stop-color="#CDF4FF"/>
</linearGradient>
</defs>
</svg>
